<svg width="16" height="16" viewBox="0 0 16 16" fill="none" xmlns="http://www.w3.org/2000/svg">
<path d="M7.85541 5.0712C6.47825 5.0712 5.35439 6.19509 5.35439 7.57227C5.35439 8.94945 6.47825 10.0733 7.85541 10.0733C9.23256 10.0733 10.3564 8.94945 10.3564 7.57227C10.3564 6.19509 9.23256 5.0712 7.85541 5.0712ZM15.3566 7.57227C15.3566 6.53657 15.366 5.51025 15.3078 4.47642C15.2496 3.27561 14.9757 2.20989 14.0976 1.3318C13.2177 0.45183 12.1539 0.179771 10.9531 0.121607C9.91739 0.0634423 8.89109 0.0728237 7.85728 0.0728237C6.8216 0.0728237 5.7953 0.0634423 4.7615 0.121607C3.56071 0.179771 2.49501 0.453706 1.61693 1.3318C0.736979 2.21177 0.464925 3.27561 0.406762 4.47642C0.348599 5.51212 0.35798 6.53844 0.35798 7.57227C0.35798 8.60609 0.348599 9.63428 0.406762 10.6681C0.464925 11.8689 0.738855 12.9346 1.61693 13.8127C2.49689 14.6927 3.56071 14.9648 4.7615 15.0229C5.79718 15.0811 6.82348 15.0717 7.85728 15.0717C8.89296 15.0717 9.91926 15.0811 10.9531 15.0229C12.1539 14.9648 13.2196 14.6908 14.0976 13.8127C14.9776 12.9328 15.2496 11.8689 15.3078 10.6681C15.3678 9.63428 15.3566 8.60797 15.3566 7.57227ZM7.85541 11.4205C5.72588 11.4205 4.00725 9.70183 4.00725 7.57227C4.00725 5.4427 5.72588 3.72404 7.85541 3.72404C9.98493 3.72404 11.7036 5.4427 11.7036 7.57227C11.7036 9.70183 9.98493 11.4205 7.85541 11.4205ZM11.8612 4.46517C11.364 4.46517 10.9624 4.06365 10.9624 3.56643C10.9624 3.06922 11.364 2.6677 11.8612 2.6677C12.3584 2.6677 12.7599 3.06922 12.7599 3.56643C12.76 3.6845 12.7369 3.80143 12.6918 3.91054C12.6467 4.01965 12.5805 4.11878 12.497 4.20226C12.4135 4.28575 12.3144 4.35194 12.2053 4.39706C12.0962 4.44217 11.9792 4.46531 11.8612 4.46517Z" fill="white"/>
</svg>
