<svg width="16" height="16" viewBox="0 0 16 16" fill="none" xmlns="http://www.w3.org/2000/svg">
<path fill-rule="evenodd" clip-rule="evenodd" d="M5.64402 5.58417H8.42952V6.97167C8.83077 6.17367 9.85977 5.45667 11.4055 5.45667C14.3688 5.45667 15.0723 7.04517 15.0723 9.95967V15.3574H12.0723V10.6234C12.0723 8.96367 11.671 8.02767 10.6495 8.02767C9.23277 8.02767 8.64402 9.03642 8.64402 10.6227V15.3574H5.64402V5.58417ZM0.499766 15.2299H3.49977V5.45667H0.499766V15.2299ZM3.92952 2.26992C3.92963 2.52138 3.87976 2.77035 3.78281 3.00236C3.68585 3.23438 3.54375 3.44481 3.36477 3.62142C3.00207 3.98189 2.51112 4.18366 1.99977 4.18242C1.48931 4.18208 0.999499 3.98082 0.636266 3.62217C0.457924 3.44496 0.316305 3.23429 0.219523 3.00225C0.122742 2.7702 0.0727 2.52134 0.0722656 2.26992C0.0722656 1.76217 0.274766 1.27617 0.637016 0.917672C0.999929 0.558541 1.48995 0.357197 2.00052 0.357422C2.51202 0.357422 3.00252 0.559172 3.36477 0.917672C3.72627 1.27617 3.92952 1.76217 3.92952 2.26992Z" fill="currentColor"/>
</svg>
