<svg width="16" height="14" viewBox="0 0 16 14" fill="none" xmlns="http://www.w3.org/2000/svg">
<path d="M15.7851 1.94981C15.2235 2.21225 14.6278 2.38442 14.0178 2.4606C14.6603 2.0551 15.1411 1.41701 15.3706 0.665253C14.7667 1.04342 14.1058 1.30971 13.4166 1.45259C13.1287 1.12866 12.7807 0.870554 12.3943 0.694263C12.008 0.517973 11.5914 0.427257 11.1704 0.427736C9.47098 0.427736 8.09299 1.88078 8.09299 3.67366C8.09299 3.92782 8.12026 4.17581 8.17285 4.41354C5.61516 4.27813 3.34772 2.98577 1.82986 1.02173C1.55618 1.51712 1.41237 2.08038 1.41318 2.65373C1.41278 3.18815 1.53754 3.71439 1.77637 4.18571C2.01521 4.65703 2.36072 5.05882 2.78222 5.35538C2.29361 5.33901 1.81577 5.19982 1.38844 4.94939C1.38805 4.96295 1.38805 4.9763 1.38805 4.99027C1.38805 6.56248 2.44873 7.87437 3.85633 8.17291C3.40309 8.30233 2.92787 8.3213 2.46665 8.22839C2.85819 9.51768 3.99464 10.4564 5.34128 10.4827C4.25117 11.3851 2.90504 11.8745 1.51935 11.8723C1.27098 11.8723 1.02612 11.8571 0.785156 11.8269C2.19224 12.7805 3.82987 13.2866 5.50237 13.2849C11.1628 13.2849 14.2581 8.33913 14.2581 4.05027C14.2581 3.90974 14.255 3.76941 14.2492 3.6299C14.852 3.17087 15.3721 2.60189 15.7851 1.94981Z" fill="currentColor"/>
</svg>
