<svg width="16" height="12" viewBox="0 0 16 12" fill="none" xmlns="http://www.w3.org/2000/svg">
<path d="M14.9018 2.1423C14.8164 1.82428 14.649 1.53427 14.4163 1.30129C14.1836 1.0683 13.8938 0.900522 13.5759 0.814732C12.4057 0.5 7.71484 0.5 7.71484 0.5C7.71484 0.5 3.024 0.5 1.85379 0.813058C1.53575 0.89857 1.2458 1.06626 1.01307 1.29929C0.780335 1.53231 0.613012 1.82247 0.527902 2.14063C0.214844 3.3125 0.214844 5.7567 0.214844 5.7567C0.214844 5.7567 0.214844 8.2009 0.527902 9.3711C0.700335 10.0173 1.20926 10.5262 1.85379 10.6987C3.024 11.0134 7.71484 11.0134 7.71484 11.0134C7.71484 11.0134 12.4057 11.0134 13.5759 10.6987C14.2221 10.5262 14.7294 10.0173 14.9018 9.3711C15.2148 8.2009 15.2148 5.7567 15.2148 5.7567C15.2148 5.7567 15.2148 3.3125 14.9018 2.1423ZM6.22489 8V3.51339L10.1088 5.73996L6.22489 8Z" fill="white"/>
</svg>
