<?xml version="1.0" standalone="no"?>
<!DOCTYPE svg PUBLIC "-//W3C//DTD SVG 20010904//EN"
 "http://www.w3.org/TR/2001/REC-SVG-20010904/DTD/svg10.dtd">
<svg version="1.0" xmlns="http://www.w3.org/2000/svg"
 width="60.000000pt" height="70.000000pt" viewBox="0 0 47.000000 57.000000"
 preserveAspectRatio="xMidYMid meet">

<g transform="translate(0.000000,57.000000) scale(0.100000,-0.100000)"
fill="#dc2626" stroke="none">
<path d="M140 519 c-86 -39 -116 -89 -105 -179 12 -95 54 -130 155 -130 70 1
107 18 97 45 -8 19 -21 19 -37 0 -17 -20 -99 -20 -128 1 -55 38 -66 112 -27
174 30 47 70 70 124 70 55 0 90 -15 134 -58 35 -34 37 -40 37 -97 0 -85 -38
-146 -106 -169 -26 -9 -60 -16 -75 -16 -25 0 -45 -21 -32 -34 4 -3 35 -6 69
-6 65 0 79 -8 69 -39 -7 -23 -46 -41 -89 -41 -35 0 -81 39 -88 74 -5 29 -28
32 -28 3 0 -72 89 -129 170 -107 73 20 99 68 64 118 -15 22 -14 24 9 46 14 13
37 42 52 64 25 39 27 48 23 113 -5 59 -10 76 -35 107 -63 78 -161 101 -253 61z"/>
</g>
</svg>
